# xmcd CD database file
#
# Track frame offsets:
#	182
#	13155
#	26655
#	39205
#	52825
#	66232
#	79315
#	91622
#	105465
#	117817
#	130492
#	144167
#	156787
#	168865
#	182585
#	193657
#	206685
#	217702
#
# Disc length: 3087 seconds
#
# Revision: 0
# Processed by: cddbd v1.5.1PL2 Copyright (c) Steve Scherf et al.
# Submitted via: CDex 1.51
#
DISCID=e30c0d12
DTITLE=Amos Milburn - Greatest Hits
DYEAR=1900
DGENRE=Blues
TTITLE0=Chicken Shack Boogie
TTITLE1=Bewildered
TTITLE2=Roomin' House Boogie
TTITLE3=Bad Bad Whiskey
TTITLE4=One Scotch, One Bourbon, One Beer
TTITLE5=Hold Me Baby
TTITLE6=In The Middle Of The Night
TTITLE7=Let's Make Chirstmas Merry, Baby
TTITLE8=Let's Rock Awhile
TTITLE9=Let Me Go Home, Whiskey
TTITLE10=Empty Arms Blues
TTITLE11=Tears, Tears, Tears
TTITLE12=It Took A Long Long Time
TTITLE13=Walkin' Blues
TTITLE14=Thinking And Drinking
TTITLE15=Sax Shack Boogie
TTITLE16=Real Pretty Mama Blues
TTITLE17=Good Good Whiskey
EXTD=
EXTT0=
EXTT1=
EXTT2=
EXTT3=
EXTT4=
EXTT5=
EXTT6=
EXTT7=
EXTT8=
EXTT9=
EXTT10=
EXTT11=
EXTT12=
EXTT13=
EXTT14=
EXTT15=
EXTT16=
EXTT17=
PLAYORDER=
